# xmcd
#
# Track frame offsets:
#	187
#	49215
#	73125
#	102152
#	107240
#	136845
#	157830
#	163445
#	179370
#	197697
#	216592
#	235705
#	252535
#	263702
#	270430
#
# Disc length: 3953 seconds
#
# Revision: 1
# Processed by: cddbd v1.5PL3 Copyright (c) Steve Scherf et al.
# Submitted via: CDex 1.50Beta5
#
DISCID=df0f6f0f
DTITLE=James Brown - Sex Machine
DYEAR=1900
DGENRE=ROCK
TTITLE0=Get Up (I Feel Like Being A) Sex Machine
TTITLE1=Brother Rapp, Pts. 1 and 2
TTITLE2=Medley: Bewildered
TTITLE3=I Got the Feelin'
TTITLE4=Give It up or Turnit a Loose
TTITLE5=I Don't Want Nobody to Give Me Nothing (Open up the Door I'll Get It My
TTITLE6=Licking Stick-Licking Stick
TTITLE7=Lowdown Popcorn
TTITLE8=Spinning Wheel
TTITLE9=If I Ruled the World
TTITLE10=There Was a Time
TTITLE11=It's a Man's Man's Man's World
TTITLE12=Please, Please, Please
TTITLE13=I Can't Stand Myself (When You Touch Me)
TTITLE14=Mother Popcorn
EXTD=
EXTT0=
EXTT1=
EXTT2=
EXTT3=
EXTT4=
EXTT5=
EXTT6=
EXTT7=
EXTT8=
EXTT9=
EXTT10=
EXTT11=
EXTT12=
EXTT13=
EXTT14=
PLAYORDER=
